<?xml version="1.0" encoding="UTF-8"?>
<svg width="22px" height="26px" viewBox="0 0 22 26" version="1.1" xmlns="http://www.w3.org/2000/svg" xmlns:xlink="http://www.w3.org/1999/xlink">
    <!-- Generator: Sketch 52.4 (67378) - http://www.bohemiancoding.com/sketch -->
    <title>shaixuan</title>
    <desc>Created with Sketch.</desc>
    <g id="Page-1" stroke="none" stroke-width="1" fill="none" fill-rule="evenodd">
        <g id="Health-Tab-Copy-58" transform="translate(-695.000000, -71.000000)" fill="#000000" fill-rule="nonzero">
            <g id="shaixuan" transform="translate(695.000000, 71.000000)">
                <path d="M21.8023906,8.71001014 L15.5623833,0.520000605 C15.250383,0.130000151 14.7043823,4.4408921e-16 14.2623818,0.260000303 C13.9503815,0.442000514 13.7683812,0.780000908 13.7683812,1.14400133 L13.7683812,24.960029 C13.8203813,25.5060297 14.3143819,25.9220302 14.8603825,25.8700301 C15.3803831,25.81803 15.7703836,25.3760295 15.7703836,24.8560289 L15.7703836,4.08200475 L20.2163887,9.90601153 C20.5543891,10.348012 21.1783899,10.4260121 21.6203904,10.0880117 C22.0363909,9.77601138 22.140391,9.12601062 21.8023906,8.71001014 Z M7.41237501,0.130000151 C6.89237441,0.182000212 6.50237395,0.624000726 6.50237395,1.14400133 L6.50237395,21.9180255 L2.05636878,16.0940187 C1.87436857,15.8340184 1.5623682,15.7040183 1.25036784,15.7040183 C0.704367206,15.7040183 0.262366692,16.1460188 0.262366692,16.6920194 C0.262366692,16.9000197 0.340366783,17.1340199 0.470366934,17.2900201 L6.7103742,25.4540296 C7.02237456,25.8440301 7.56837519,25.9740302 8.01037571,25.7140299 C8.32237607,25.5320297 8.50437628,25.1940293 8.50437628,24.8300289 L8.50437628,1.01400118 C8.45237622,0.494000575 7.98437568,0.0780000908 7.41237501,0.130000151 Z" id="Shape"></path>
            </g>
        </g>
    </g>
</svg>